<?xml version="1.0" encoding="UTF-8" standalone="no"?>
<!DOCTYPE svg PUBLIC "-//W3C//DTD SVG 1.1//EN" "http://www.w3.org/Graphics/SVG/1.1/DTD/svg11.dtd">
<svg version="1.1" xmlns="http://www.w3.org/2000/svg" xmlns:xlink="http://www.w3.org/1999/xlink" preserveAspectRatio="xMidYMid meet" viewBox="0 0 132 132" width="24" height="24"><defs><path d="M14.9 33.86C5.18 34.03 1.72 40.71 1.72 49.12C1.72 49.12 1.72 49.12 1.72 49.12C1.72 57.52 5.18 64.34 14.9 64.34C21.84 64.34 56.56 64.34 119.04 64.34C128.15 64.34 133.22 64.34 134.23 64.34C131.86 60.86 131.2 57.03 130.86 56.22C125.57 39.35 117.76 34.2 101.29 33.89C84.02 33.88 23.54 33.87 14.9 33.86Z" id="bmcNppw7s"></path><path d="M14.9 98.2C5.18 98.03 1.72 91.36 1.72 82.95C1.72 82.95 1.72 82.95 1.72 82.95C1.72 74.54 5.18 67.73 14.9 67.73C21.84 67.73 56.56 67.73 119.04 67.73C128.15 67.73 133.22 67.73 134.23 67.73C131.86 71.21 131.2 75.04 130.86 75.85C125.57 92.72 117.76 97.86 101.29 98.18C84.02 98.18 23.54 98.2 14.9 98.2Z" id="a1vjv4kKsG"></path><path d="M14.92 0C5.18 0.17 1.72 7.08 1.72 15.24C1.72 23.4 5.18 30.48 14.92 30.48C23.5 30.48 92.16 30.48 100.74 30.48C116.97 30.4 126.89 36.04 130.48 47.41C130.48 32.43 130.48 24.11 130.48 22.44C130.48 10.18 125.57 0 110.64 0C91.5 0 24.49 0 14.92 0Z" id="ccjwwmNa"></path><path d="M14.92 132C5.18 131.83 1.72 124.92 1.72 116.76C1.72 108.6 5.18 101.52 14.92 101.52C23.5 101.52 92.16 101.52 100.74 101.52C116.97 101.6 126.89 95.96 130.48 84.59C130.48 99.57 130.48 107.89 130.48 109.56C130.48 121.82 125.57 132 110.64 132C91.5 132 24.49 132 14.92 132Z" id="cdhwrZ3eN"></path></defs><g><g><g><use xlink:href="#bmcNppw7s" opacity="1" fill="#f6da0e" fill-opacity="1"></use><g><use xlink:href="#bmcNppw7s" opacity="1" fill-opacity="0" stroke="#000000" stroke-width="1" stroke-opacity="0"></use></g></g><g><use xlink:href="#a1vjv4kKsG" opacity="1" fill="#f6407a" fill-opacity="1"></use><g><use xlink:href="#a1vjv4kKsG" opacity="1" fill-opacity="0" stroke="#000000" stroke-width="1" stroke-opacity="0"></use></g></g><g><use xlink:href="#ccjwwmNa" opacity="1" fill="#4f69f3" fill-opacity="1"></use><g><use xlink:href="#ccjwwmNa" opacity="1" fill-opacity="0" stroke="#000000" stroke-width="1" stroke-opacity="0"></use></g></g><g><use xlink:href="#cdhwrZ3eN" opacity="1" fill="#3ad67f" fill-opacity="1"></use><g><use xlink:href="#cdhwrZ3eN" opacity="1" fill-opacity="0" stroke="#000000" stroke-width="1" stroke-opacity="0"></use></g></g></g></g></svg>