<?xml version="1.0" encoding="UTF-8" standalone="no"?><!-- Generator: Gravit.io --><svg xmlns="http://www.w3.org/2000/svg" xmlns:xlink="http://www.w3.org/1999/xlink" style="isolation:isolate" viewBox="0 0 492.315 99.585" width="492.315pt" height="99.585pt"><defs><clipPath id="_clipPath_tDQ7p4EwWc1MwqpGiLEGoklbpdZdrMHO"><rect width="492.315" height="99.585"/></clipPath></defs><g clip-path="url(#_clipPath_tDQ7p4EwWc1MwqpGiLEGoklbpdZdrMHO)"><path d=" M 192.196 40.532 L 189.583 40.532 L 177.007 40.122 L 177.007 40.122 Q 165.983 40.122 155.939 50.255 L 155.939 50.255 L 155.939 94.005 L 155.939 94.005 Q 155.939 95.853 154.51 97.017 L 154.51 97.017 L 154.51 97.017 Q 153.081 98.181 150.958 98.181 L 150.958 98.181 L 132.666 98.181 L 132.666 98.181 Q 130.462 98.181 129.073 97.017 L 129.073 97.017 L 129.073 97.017 Q 127.685 95.853 127.685 94.005 L 127.685 94.005 L 127.685 27.387 L 127.685 27.387 Q 127.685 25.538 129.114 24.34 L 129.114 24.34 L 129.114 24.34 Q 130.543 23.142 132.666 23.142 L 132.666 23.142 L 150.958 23.142 L 150.958 23.142 Q 153.163 23.142 154.551 24.34 L 154.551 24.34 L 154.551 24.34 Q 155.939 25.538 155.939 27.387 L 155.939 27.387 L 155.939 31.7 L 155.939 31.7 Q 164.268 26.634 171.985 24.203 L 171.985 24.203 L 171.985 24.203 Q 179.702 21.772 192.196 21.772 L 192.196 21.772 L 192.196 21.772 Q 194.4 21.772 195.829 22.971 L 195.829 22.971 L 195.829 22.971 Q 197.258 24.169 197.258 25.949 L 197.258 25.949 L 197.258 36.356 L 197.258 36.356 Q 197.258 38.204 195.829 39.368 L 195.829 39.368 L 195.829 39.368 Q 194.4 40.532 192.196 40.532 L 192.196 40.532 Z  M 208.866 93.252 L 208.866 93.252 L 208.866 93.252 Q 198.047 86.953 198.047 75.45 L 198.047 75.45 L 198.047 75.45 Q 198.047 63.948 208.866 57.786 L 208.866 57.786 L 208.866 57.786 Q 219.686 51.624 236.753 51.624 L 236.753 51.624 L 263.782 51.624 L 263.782 51.624 Q 263.782 43.613 259.781 40.464 L 259.781 40.464 L 259.781 40.464 Q 255.779 37.314 245.776 37.314 L 245.776 37.314 L 245.776 37.314 Q 235.773 37.314 231.731 41.457 L 231.731 41.457 L 231.731 41.457 Q 227.689 45.599 221.809 45.599 L 221.809 45.599 L 209.642 45.599 L 209.642 45.599 Q 207.437 45.599 206.008 44.401 L 206.008 44.401 L 206.008 44.401 Q 204.579 43.203 204.579 41.422 L 204.579 41.422 L 204.579 41.422 Q 204.579 21.772 249.083 21.772 L 249.083 21.772 L 249.083 21.772 Q 268.518 21.772 280.277 29.064 L 280.277 29.064 L 280.277 29.064 Q 292.036 36.356 292.036 51.624 L 292.036 51.624 L 292.036 94.005 L 292.036 94.005 Q 292.036 95.853 290.648 97.017 L 290.648 97.017 L 290.648 97.017 Q 289.26 98.181 287.055 98.181 L 287.055 98.181 L 271.295 98.181 L 271.295 98.181 Q 269.09 98.181 267.702 96.983 L 267.702 96.983 L 267.702 96.983 Q 266.313 95.785 266.313 94.005 L 266.313 94.005 L 266.313 91.882 L 266.313 91.882 Q 253.411 99.619 236.549 99.585 L 236.549 99.585 L 236.549 99.585 Q 219.686 99.551 208.866 93.252 Z  M 238.713 67.166 L 238.713 67.166 Q 232.997 67.166 229.689 69.494 L 229.689 69.494 L 229.689 69.494 Q 226.382 71.822 226.382 75.519 L 226.382 75.519 L 226.382 75.519 Q 226.382 79.216 229.812 81.612 L 229.812 81.612 L 229.812 81.612 Q 233.242 84.009 239.529 84.009 L 239.529 84.009 L 239.529 84.009 Q 252.105 84.009 263.782 77.847 L 263.782 77.847 L 263.782 67.166 L 238.713 67.166 Z  M 396.068 95.169 L 396.068 95.169 L 396.068 95.169 Q 396.068 98.181 391.821 98.181 L 391.821 98.181 L 376.388 98.181 L 376.388 98.181 Q 368.549 98.181 363.894 91.745 L 363.894 91.745 L 353.523 77.573 L 353.523 77.573 Q 346.827 68.467 334.088 68.467 L 334.088 68.467 L 334.088 94.005 L 334.088 94.005 Q 334.088 95.853 332.659 97.017 L 332.659 97.017 L 332.659 97.017 Q 331.23 98.181 329.107 98.181 L 329.107 98.181 L 310.816 98.181 L 310.816 98.181 Q 308.611 98.181 307.223 97.017 L 307.223 97.017 L 307.223 97.017 Q 305.835 95.853 305.835 94.005 L 305.835 94.005 L 305.835 4.245 L 305.835 4.245 Q 305.835 2.396 307.264 1.198 L 307.264 1.198 L 307.264 1.198 Q 308.693 0 310.816 0 L 310.816 0 L 329.107 0 L 329.107 0 Q 331.312 0 332.7 1.198 L 332.7 1.198 L 332.7 1.198 Q 334.088 2.396 334.088 4.245 L 334.088 4.245 L 334.088 52.856 L 334.088 52.856 Q 348.297 52.856 353.523 43.613 L 353.523 43.613 L 361.363 29.646 L 361.363 29.646 Q 362.996 26.702 366.18 24.922 L 366.18 24.922 L 366.18 24.922 Q 369.365 23.142 373.04 23.142 L 373.04 23.142 L 388.473 23.142 L 388.473 23.142 Q 392.556 23.142 392.556 25.812 L 392.556 25.812 L 392.556 25.812 Q 392.556 27.318 391.25 29.646 L 391.25 29.646 L 380.716 48.269 L 380.716 48.269 Q 378.021 52.925 373.366 56.28 L 373.366 56.28 L 373.366 56.28 Q 368.712 59.635 363.322 60.593 L 363.322 60.593 L 363.322 60.593 Q 373.366 63.126 380.716 72.917 L 380.716 72.917 L 394.598 91.745 L 394.598 91.745 Q 395.986 93.731 396.068 95.169 Z  M 409.513 89.555 L 409.513 89.555 L 409.513 89.555 Q 396.937 79.558 396.937 60.764 L 396.937 60.764 L 396.937 60.764 Q 396.937 41.97 409.594 31.871 L 409.594 31.871 L 409.594 31.871 Q 422.252 21.772 444.708 21.772 L 444.708 21.772 L 444.708 21.772 Q 467.164 21.772 479.739 31.597 L 479.739 31.597 L 479.739 31.597 Q 492.315 41.422 492.315 59.771 L 492.315 59.771 L 492.315 63.674 L 492.315 63.674 Q 492.315 65.523 490.886 66.721 L 490.886 66.721 L 490.886 66.721 Q 489.457 67.919 487.252 67.919 L 487.252 67.919 L 425.763 67.919 L 425.763 67.919 Q 426.579 76.34 431.52 80.175 L 431.52 80.175 L 431.52 80.175 Q 436.46 84.009 447.321 84.009 L 447.321 84.009 L 447.321 84.009 Q 458.181 84.009 462.183 79.901 L 462.183 79.901 L 462.183 79.901 Q 466.184 75.793 472.063 75.724 L 472.063 75.724 L 484.231 75.724 L 484.231 75.724 Q 486.435 75.724 487.864 76.922 L 487.864 76.922 L 487.864 76.922 Q 489.293 78.121 489.293 79.969 L 489.293 79.969 L 489.293 79.969 Q 489.293 99.619 444.626 99.551 L 444.626 99.551 L 444.626 99.551 Q 422.088 99.551 409.513 89.555 Z  M 425.6 53.473 L 425.6 53.473 L 463.571 53.473 L 463.571 53.473 Q 462.754 37.314 444.667 37.314 L 444.667 37.314 L 444.667 37.314 Q 426.579 37.314 425.6 53.473 Z " fill="rgb(45,19,85)"/><path d=" M 75.124 25.567 L 9.945 25.548 C 2.611 25.675 0 30.71 0 37.054 L 0 37.054 C 0 43.398 2.611 48.54 9.945 48.54 L 88.512 48.54 L 99.97 48.54 Q 98.18 45.914 97.431 42.414 C 93.436 29.685 87.542 25.804 75.124 25.567 Z " fill="rgb(246,218,14)"/><path d=" M 75.124 74.068 L 9.945 74.088 C 2.611 73.96 0 68.926 0 62.582 L 0 62.582 C 0 56.238 2.611 51.095 9.945 51.095 L 88.512 51.095 L 99.97 51.095 Q 98.18 53.721 97.431 57.222 C 93.436 69.95 87.542 73.831 75.124 74.068 Z " fill="rgb(246,64,122)"/><path d=" M 82.176 0 L 9.961 0 C 2.615 0.128 0 5.338 0 11.496 C 0 17.654 2.615 22.993 9.961 22.993 L 74.705 22.993 Q 93.077 22.903 97.139 35.767 L 97.139 16.933 C 97.139 7.683 93.44 0 82.176 0 Z " fill="rgb(79,105,243)"/><path d=" M 82.176 99.585 L 9.961 99.585 C 2.615 99.457 0 94.247 0 88.089 C 0 81.931 2.615 76.592 9.961 76.592 L 74.705 76.592 Q 93.077 76.682 97.139 63.819 L 97.139 82.652 C 97.139 91.902 93.44 99.585 82.176 99.585 Z " fill="rgb(58,214,127)"/></g></svg>