<?xml version="1.0" encoding="UTF-8" standalone="no"?><!-- Generator: Gravit.io --><svg xmlns="http://www.w3.org/2000/svg" xmlns:xlink="http://www.w3.org/1999/xlink" style="isolation:isolate" viewBox="0 0 600 600" width="600pt" height="600pt"><defs><clipPath id="_clipPath_KEuGiL4VUVPcjhNxGCfLjWScd1wFWcxK"><rect width="600" height="600"/></clipPath></defs><g clip-path="url(#_clipPath_KEuGiL4VUVPcjhNxGCfLjWScd1wFWcxK)"><linearGradient id="_lgradient_0" x1="0.14644660940672632" y1="0.14644660940672616" x2="0.8535533905932737" y2="0.8535533905932738"><stop offset="0%" style="stop-color:#2D1355"/><stop offset="99.1304347826087%" style="stop-color:#593E85"/></linearGradient><rect width="600" height="600" style="fill:url(#_lgradient_0);"/><defs><filter id="Gz0YToEPACgR8JEp2RwvomG1JMY0Bzn7" x="-200%" y="-200%" width="400%" height="400%" filterUnits="objectBoundingBox" color-interpolation-filters="sRGB"><feGaussianBlur xmlns="http://www.w3.org/2000/svg" in="SourceGraphic" stdDeviation="6.440413594258542"/><feOffset xmlns="http://www.w3.org/2000/svg" dx="3" dy="3" result="pf_100_offsetBlur"/><feFlood xmlns="http://www.w3.org/2000/svg" flood-color="#000000" flood-opacity="0.65"/><feComposite xmlns="http://www.w3.org/2000/svg" in2="pf_100_offsetBlur" operator="in" result="pf_100_dropShadow"/><feBlend xmlns="http://www.w3.org/2000/svg" in="SourceGraphic" in2="pf_100_dropShadow" mode="normal"/></filter></defs><g filter="url(#Gz0YToEPACgR8JEp2RwvomG1JMY0Bzn7)"><clipPath id="_clipPath_mb9VBuoxsd6qXmJuHKPsdohybVQXKnSH"><rect x="0" y="0" width="600" height="600" transform="matrix(1,0,0,1,0,0)" fill="rgb(255,255,255)"/></clipPath><g clip-path="url(#_clipPath_mb9VBuoxsd6qXmJuHKPsdohybVQXKnSH)"><g><path d=" M 380.274 222.642 L 172.143 222.58 C 148.722 222.988 140.385 239.064 140.385 259.321 L 140.385 259.321 C 140.385 279.58 148.722 296.001 172.143 296.001 L 423.025 296.001 L 459.615 296.001 Q 453.898 287.616 451.506 276.437 C 438.75 235.791 419.93 223.399 380.274 222.642 Z " fill="rgb(246,218,14)"/><path d=" M 380.274 377.518 L 172.143 377.581 C 148.722 377.173 140.385 361.097 140.385 340.839 L 140.385 340.839 C 140.385 320.581 148.722 304.159 172.143 304.159 L 423.025 304.159 L 459.615 304.159 Q 453.898 312.544 451.506 323.723 C 438.75 364.369 419.93 376.762 380.274 377.518 Z " fill="rgb(246,64,122)"/><path d=" M 402.794 141 L 172.193 141 C 148.735 141.408 140.385 158.046 140.385 177.711 C 140.385 197.375 148.735 214.421 172.193 214.421 L 378.938 214.421 Q 437.604 214.137 450.573 255.211 L 450.573 195.073 C 450.573 165.534 438.763 141 402.794 141 Z " fill="rgb(79,105,243)"/><path d=" M 402.794 459 L 172.193 459 C 148.735 458.592 140.385 441.954 140.385 422.289 C 140.385 402.625 148.735 385.579 172.193 385.579 L 378.938 385.579 Q 437.604 385.863 450.573 344.789 L 450.573 404.927 C 450.573 434.466 438.763 459 402.794 459 Z " fill="rgb(58,214,127)"/></g></g></g></g></svg>